<svg xmlns="http://www.w3.org/2000/svg" width="1600" height="1200" viewBox="0 0 1600 1200">
  <defs>
    <linearGradient id="water" x1="0" x2="0" y1="0" y2="1">
      <stop offset="0" stop-color="#e6f7ff" stop-opacity="0.7"/>
      <stop offset="1" stop-color="#f7fbff" stop-opacity="0.7"/>
    </linearGradient>
  </defs>
  <rect width="1600" height="1200" fill="url(#water)"/>
  <path d="M0,300 Q200,260 400,300 T800,300 T1200,300 T1600,300" fill="none" stroke="#cfefff" stroke-width="4" opacity="0.5"/>
  <path d="M0,360 Q200,320 400,360 T800,360 T1200,360 T1600,360" fill="none" stroke="#d9f2ff" stroke-width="3" opacity="0.4"/>
  <path d="M0,420 Q200,380 400,420 T800,420 T1200,420 T1600,420" fill="none" stroke="#e3f6ff" stroke-width="2" opacity="0.4"/>
  <!-- dotted island hints -->
  <g fill="#b8e8ff" opacity="0.5">
    <circle cx="1150" cy="370" r="3"/><circle cx="1165" cy="380" r="2"/>
    <circle cx="1180" cy="390" r="2"/><circle cx="1193" cy="382" r="2"/>
    <circle cx="1210" cy="392" r="2"/><circle cx="1222" cy="400" r="2"/>
  </g>
</svg>