<?xml version="1.0" encoding="UTF-8"?>
<svg width="900" height="600" viewBox="0 0 900 600" fill="none" xmlns="http://www.w3.org/2000/svg" role="img">
  <title>Caribbean Map — CarribCareerHub</title>
  <desc>Stylized Caribbean map highlighting Jamaica, Barbados, and Trinidad & Tobago in brand colors with location pins.</desc>

  <!-- Brand colors -->
  <!-- Primary gradient: #1E6CFF → #3FA2FF -->
  <!-- Accent: #FFA03B -->

  <!-- Background wave flourish (subtle) -->
  <defs>
    <linearGradient id="brandGrad" x1="0" y1="0" x2="1" y2="1">
      <stop offset="0%" stop-color="#1E6CFF"/>
      <stop offset="100%" stop-color="#3FA2FF"/>
    </linearGradient>

    <radialGradient id="glowGrad" cx="50%" cy="50%" r="50%">
      <stop offset="0%" stop-color="#1E6CFF" stop-opacity="0.12"/>
      <stop offset="100%" stop-color="#1E6CFF" stop-opacity="0"/>
    </radialGradient>

    <filter id="softShadow" x="-20%" y="-20%" width="140%" height="140%">
      <feGaussianBlur in="SourceAlpha" stdDeviation="6" result="blur"/>
      <feOffset dx="0" dy="6" result="offset"/>
      <feColorMatrix in="offset" type="matrix"
        values="0 0 0 0 0
                0 0 0 0 0.2
                0 0 0 0 0.6
                0 0 0 0.20 0" result="shadow"/>
      <feMerge>
        <feMergeNode in="shadow"/>
        <feMergeNode in="SourceGraphic"/>
      </feMerge>
    </filter>

    <!-- Pin symbol -->
    <g id="pin">
      <circle cx="0" cy="0" r="10" fill="#FFA03B"/>
      <circle cx="0" cy="0" r="13" fill="white" opacity="0.9"/>
      <circle cx="0" cy="0" r="8.5" fill="#FFA03B"/>
    </g>
  </defs>

  <!-- Ambient glow -->
  <ellipse cx="450" cy="320" rx="380" ry="220" fill="url(#glowGrad)"/>

  <!-- Decorative waves -->
  <path d="M30 520 C180 460, 280 590, 430 530 S700 460, 870 520"
        stroke="#E4ECFF" stroke-width="2" fill="none" opacity="0.6"/>
  <path d="M60 550 C210 490, 330 620, 470 560 S720 490, 840 555"
        stroke="#E4ECFF" stroke-width="2" fill="none" opacity="0.45"/>

  <!-- GROUP: Stylized islands (not to geographic scale; arranged for clarity) -->
  <g filter="url(#softShadow)" stroke="white" stroke-opacity="0.9" stroke-width="3">
    <!-- Cuba / Hispaniola arc (abstract backdrop shape for composition) -->
    <path d="M160 230 C260 210, 360 210, 460 240 C520 260, 540 300, 500 320 C430 355, 300 355, 210 330 C160 315, 130 270, 160 230 Z"
          fill="url(#brandGrad)" opacity="0.18"/>

    <!-- Jamaica (stylized) -->
    <path d="M210 300 C250 288, 330 288, 370 300 C386 305, 388 318, 372 324 C332 339, 248 340, 210 326 C194 320, 194 306, 210 300 Z"
          fill="url(#brandGrad)"/>

    <!-- Barbados (stylized) -->
    <path d="M620 350 C635 330, 666 330, 680 352 C690 368, 680 396, 660 402 C640 408, 620 380, 620 350 Z"
          fill="url(#brandGrad)"/>

    <!-- Trinidad (stylized) -->
    <path d="M540 410 C568 400, 610 405, 628 420 C642 431, 635 448, 612 452 C580 458, 548 450, 535 438 C526 430, 528 415, 540 410 Z"
          fill="url(#brandGrad)"/>
    <!-- Tobago (small) -->
    <ellipse cx="605" cy="388" rx="10" ry="7" fill="url(#brandGrad)"/>
  </g>

  <!-- Pins + labels -->
  <!-- Jamaica pin -->
  <g transform="translate(300, 305)">
    <use href="#pin" x="0" y="0"/>
    <g transform="translate(16, -10)">
      <rect x="0" y="-16" rx="8" ry="8" width="116" height="28" fill="white" opacity="0.9"/>
      <text x="10" y="4" font-family="Inter, system-ui, -apple-system, Segoe UI, Roboto, Arial, sans-serif"
            font-size="14" font-weight="700" fill="#0A2458" letter-spacing=".3px">
        JAMAICA
      </text>
    </g>
  </g>

  <!-- Barbados pin -->
  <g transform="translate(665, 360)">
    <use href="#pin" x="0" y="0"/>
    <g transform="translate(16, -10)">
      <rect x="0" y="-16" rx="8" ry="8" width="122" height="28" fill="white" opacity="0.9"/>
      <text x="10" y="4" font-family="Inter, system-ui, -apple-system, Segoe UI, Roboto, Arial, sans-serif"
            font-size="14" font-weight="700" fill="#0A2458" letter-spacing=".3px">
        BARBADOS
      </text>
    </g>
  </g>

  <!-- Trinidad & Tobago pin -->
  <g transform="translate(610, 430)">
    <use href="#pin" x="0" y="0"/>
    <g transform="translate(16, -10)">
      <rect x="0" y="-16" rx="8" ry="8" width="188" height="28" fill="white" opacity="0.9"/>
      <text x="10" y="4" font-family="Inter, system-ui, -apple-system, Segoe UI, Roboto, Arial, sans-serif"
            font-size="14" font-weight="700" fill="#0A2458" letter-spacing=".3px">
        TRINIDAD &amp; TOBAGO
      </text>
    </g>
  </g>

  <!-- Corner badge -->
  <g transform="translate(24, 28)" opacity="0.9">
    <rect x="0" y="0" rx="10" ry="10" width="180" height="34" fill="white"/>
    <text x="12" y="22" font-family="Inter, system-ui, -apple-system, Segoe UI, Roboto, Arial, sans-serif"
          font-size="14" font-weight="700" fill="#1E6CFF" letter-spacing=".4px">
      CarribCareerHub Network
    </text>
  </g>

</svg>
